<?xml version="1.0" standalone="no"?>
<!DOCTYPE svg PUBLIC "-//W3C//DTD SVG 20010904//EN"
 "http://www.w3.org/TR/2001/REC-SVG-20010904/DTD/svg10.dtd">
<svg version="1.0" xmlns="http://www.w3.org/2000/svg"
 width="700.000000pt" height="700.000000pt" viewBox="0 0 700.000000 700.000000"
 preserveAspectRatio="xMidYMid meet">
<metadata>
Created by potrace 1.14, written by Peter Selinger 2001-2017
</metadata>
<g transform="translate(0.000000,700.000000) scale(0.100000,-0.100000)"
fill="#000000" stroke="none">
<path d="M3375 6377 c-162 -54 -277 -187 -306 -356 -21 -119 19 -256 100 -344
l41 -44 0 -192 0 -191 -902 0 c-1004 0 -982 1 -1117 -67 -97 -49 -193 -143
-243 -239 -71 -135 -71 -135 -76 -671 l-4 -483 -22 0 c-83 0 -197 -83 -237
-172 -23 -52 -24 -60 -27 -380 -3 -274 -1 -338 13 -390 15 -61 47 -115 89
-151 34 -30 119 -67 153 -67 l32 0 4 -777 c3 -686 5 -784 20 -833 60 -199 209
-352 402 -413 l70 -22 2135 0 c2043 0 2138 1 2194 18 202 63 352 214 413 417
15 49 17 147 20 833 l4 777 32 0 c44 0 125 40 166 81 19 19 46 59 60 89 l26
55 3 328 c2 214 -1 346 -8 381 -22 109 -103 190 -222 223 l-56 16 -4 476 c-5
530 -5 531 -76 665 -50 96 -146 190 -243 239 -135 68 -113 67 -1116 67 l-903
0 0 191 0 192 41 44 c81 88 120 222 101 340 -25 147 -119 274 -249 336 -60 28
-80 32 -168 34 -63 2 -115 -2 -140 -10z m-737 -2337 c120 -64 219 -204 258
-365 22 -92 22 -258 0 -350 -39 -160 -137 -300 -258 -366 -59 -32 -69 -34
-158 -34 -86 0 -101 3 -153 30 -81 42 -169 136 -212 227 -53 112 -69 186 -69
318 0 188 54 339 161 452 93 97 167 129 288 125 68 -3 89 -8 143 -37z m2036 5
c78 -40 168 -136 211 -227 53 -112 69 -186 69 -318 0 -132 -16 -206 -69 -318
-43 -92 -133 -188 -213 -228 -50 -25 -68 -29 -147 -29 -82 0 -96 3 -157 33
-123 60 -224 200 -264 367 -24 99 -22 267 5 368 47 179 153 309 299 368 72 29
191 22 266 -16z m-4 -2005 l0 -290 -1170 0 -1170 0 0 290 0 290 1170 0 1170 0
0 -290z"/>
</g>
</svg>
